<mxfile host="app.diagrams.net" modified="2020-12-16T02:03:51.423Z" agent="5.0 (Macintosh; Intel Mac OS X 10_14_6) AppleWebKit/537.36 (KHTML, like Gecko) Chrome/87.0.4280.88 Safari/537.36" etag="D0lzqPAzFEdxr0gRWA5d" version="14.0.3" type="github">
  <diagram name="Page-1" id="e7e014a7-5840-1c2e-5031-d8a46d1fe8dd">
    <mxGraphModel dx="1298" dy="753" grid="1" gridSize="10" guides="1" tooltips="1" connect="1" arrows="1" fold="1" page="1" pageScale="1" pageWidth="1169" pageHeight="826" background="#ffffff" math="0" shadow="0">
      <root>
        <mxCell id="0" />
        <mxCell id="1" parent="0" />
        <mxCell id="hjnCzS9Ko7K_M3NJ6Ssh-41" value="«ItemReader»&lt;br&gt;&lt;p class=&quot;p1&quot; style=&quot;margin: 0px ; font-stretch: normal ; font-size: 16px ; line-height: normal ; font-family: &amp;#34;menlo&amp;#34;&quot;&gt;Person&lt;span&gt;Reader&lt;/span&gt;&lt;/p&gt;" style="html=1;dropTarget=0;" vertex="1" parent="1">
          <mxGeometry x="380" y="530" width="160" height="50" as="geometry" />
        </mxCell>
        <mxCell id="hjnCzS9Ko7K_M3NJ6Ssh-42" value="" style="shape=module;jettyWidth=8;jettyHeight=4;" vertex="1" parent="hjnCzS9Ko7K_M3NJ6Ssh-41">
          <mxGeometry x="1" width="20" height="20" relative="1" as="geometry">
            <mxPoint x="-27" y="7" as="offset" />
          </mxGeometry>
        </mxCell>
        <mxCell id="hjnCzS9Ko7K_M3NJ6Ssh-43" value="«JobLauncher»&lt;br&gt;&lt;p class=&quot;p1&quot; style=&quot;margin: 0px ; font-stretch: normal ; font-size: 16px ; line-height: normal ; font-family: &amp;#34;menlo&amp;#34;&quot;&gt;JobLauncher&lt;/p&gt;" style="html=1;dropTarget=0;" vertex="1" parent="1">
          <mxGeometry x="260" y="220" width="160" height="50" as="geometry" />
        </mxCell>
        <mxCell id="hjnCzS9Ko7K_M3NJ6Ssh-44" value="" style="shape=module;jettyWidth=8;jettyHeight=4;" vertex="1" parent="hjnCzS9Ko7K_M3NJ6Ssh-43">
          <mxGeometry x="1" width="20" height="20" relative="1" as="geometry">
            <mxPoint x="-27" y="7" as="offset" />
          </mxGeometry>
        </mxCell>
        <mxCell id="hjnCzS9Ko7K_M3NJ6Ssh-45" value="«ApplicationRunner»&lt;br&gt;&lt;p class=&quot;p1&quot; style=&quot;margin: 0px ; font-stretch: normal ; font-size: 16px ; line-height: normal ; font-family: &amp;#34;menlo&amp;#34;&quot;&gt;ImportRunner&lt;/p&gt;" style="html=1;dropTarget=0;" vertex="1" parent="1">
          <mxGeometry x="20" y="220" width="160" height="50" as="geometry" />
        </mxCell>
        <mxCell id="hjnCzS9Ko7K_M3NJ6Ssh-46" value="" style="shape=module;jettyWidth=8;jettyHeight=4;" vertex="1" parent="hjnCzS9Ko7K_M3NJ6Ssh-45">
          <mxGeometry x="1" width="20" height="20" relative="1" as="geometry">
            <mxPoint x="-27" y="7" as="offset" />
          </mxGeometry>
        </mxCell>
        <mxCell id="hjnCzS9Ko7K_M3NJ6Ssh-48" value="«Job»&lt;br&gt;&lt;p class=&quot;p1&quot; style=&quot;margin: 0px ; font-stretch: normal ; font-size: 16px ; line-height: normal ; font-family: &amp;#34;menlo&amp;#34;&quot;&gt;ImportPersonJob&lt;/p&gt;" style="html=1;dropTarget=0;" vertex="1" parent="1">
          <mxGeometry x="260" y="370" width="160" height="50" as="geometry" />
        </mxCell>
        <mxCell id="hjnCzS9Ko7K_M3NJ6Ssh-49" value="" style="shape=module;jettyWidth=8;jettyHeight=4;" vertex="1" parent="hjnCzS9Ko7K_M3NJ6Ssh-48">
          <mxGeometry x="1" width="20" height="20" relative="1" as="geometry">
            <mxPoint x="-27" y="7" as="offset" />
          </mxGeometry>
        </mxCell>
        <mxCell id="hjnCzS9Ko7K_M3NJ6Ssh-51" value="«Step»&lt;br&gt;&lt;p class=&quot;p1&quot; style=&quot;margin: 0px ; font-stretch: normal ; font-size: 16px ; line-height: normal ; font-family: &amp;#34;menlo&amp;#34;&quot;&gt;ImportPersonStep&lt;/p&gt;" style="html=1;dropTarget=0;" vertex="1" parent="1">
          <mxGeometry x="585" y="370" width="160" height="50" as="geometry" />
        </mxCell>
        <mxCell id="hjnCzS9Ko7K_M3NJ6Ssh-52" value="" style="shape=module;jettyWidth=8;jettyHeight=4;" vertex="1" parent="hjnCzS9Ko7K_M3NJ6Ssh-51">
          <mxGeometry x="1" width="20" height="20" relative="1" as="geometry">
            <mxPoint x="-27" y="7" as="offset" />
          </mxGeometry>
        </mxCell>
        <mxCell id="hjnCzS9Ko7K_M3NJ6Ssh-55" value="read" style="endArrow=open;endSize=12;dashed=1;html=1;exitX=0.5;exitY=1;exitDx=0;exitDy=0;" edge="1" parent="1" source="hjnCzS9Ko7K_M3NJ6Ssh-41" target="hjnCzS9Ko7K_M3NJ6Ssh-71">
          <mxGeometry width="160" relative="1" as="geometry">
            <mxPoint x="270" y="554.5799999999999" as="sourcePoint" />
            <mxPoint x="350" y="555.0799999999999" as="targetPoint" />
          </mxGeometry>
        </mxCell>
        <mxCell id="hjnCzS9Ko7K_M3NJ6Ssh-57" value="run" style="endArrow=open;endSize=12;dashed=1;html=1;exitX=0.5;exitY=1;exitDx=0;exitDy=0;entryX=0.5;entryY=0;entryDx=0;entryDy=0;" edge="1" parent="1" source="hjnCzS9Ko7K_M3NJ6Ssh-43" target="hjnCzS9Ko7K_M3NJ6Ssh-48">
          <mxGeometry width="160" relative="1" as="geometry">
            <mxPoint x="160" y="310" as="sourcePoint" />
            <mxPoint x="240" y="310.5" as="targetPoint" />
          </mxGeometry>
        </mxCell>
        <mxCell id="hjnCzS9Ko7K_M3NJ6Ssh-58" value="" style="endArrow=open;html=1;endSize=12;startArrow=diamondThin;startSize=14;startFill=0;edgeStyle=orthogonalEdgeStyle;align=left;verticalAlign=bottom;entryX=0;entryY=0.5;entryDx=0;entryDy=0;" edge="1" parent="1" target="hjnCzS9Ko7K_M3NJ6Ssh-51">
          <mxGeometry x="-1" y="3" relative="1" as="geometry">
            <mxPoint x="420" y="394.8" as="sourcePoint" />
            <mxPoint x="540" y="394.8" as="targetPoint" />
          </mxGeometry>
        </mxCell>
        <mxCell id="hjnCzS9Ko7K_M3NJ6Ssh-59" value="«ItemProcessor»&lt;br&gt;&lt;p class=&quot;p1&quot; style=&quot;margin: 0px ; font-stretch: normal ; font-size: 16px ; line-height: normal ; font-family: &amp;#34;menlo&amp;#34;&quot;&gt;PersonProcessor&lt;/p&gt;" style="html=1;dropTarget=0;" vertex="1" parent="1">
          <mxGeometry x="585" y="530" width="160" height="50" as="geometry" />
        </mxCell>
        <mxCell id="hjnCzS9Ko7K_M3NJ6Ssh-60" value="" style="shape=module;jettyWidth=8;jettyHeight=4;" vertex="1" parent="hjnCzS9Ko7K_M3NJ6Ssh-59">
          <mxGeometry x="1" width="20" height="20" relative="1" as="geometry">
            <mxPoint x="-27" y="7" as="offset" />
          </mxGeometry>
        </mxCell>
        <mxCell id="hjnCzS9Ko7K_M3NJ6Ssh-61" value="«ItemWriter»&lt;br&gt;&lt;p class=&quot;p1&quot; style=&quot;margin: 0px ; font-stretch: normal ; font-size: 16px ; line-height: normal ; font-family: &amp;#34;menlo&amp;#34;&quot;&gt;PersonWriter&lt;/p&gt;" style="html=1;dropTarget=0;" vertex="1" parent="1">
          <mxGeometry x="780" y="530" width="160" height="50" as="geometry" />
        </mxCell>
        <mxCell id="hjnCzS9Ko7K_M3NJ6Ssh-62" value="" style="shape=module;jettyWidth=8;jettyHeight=4;" vertex="1" parent="hjnCzS9Ko7K_M3NJ6Ssh-61">
          <mxGeometry x="1" width="20" height="20" relative="1" as="geometry">
            <mxPoint x="-27" y="7" as="offset" />
          </mxGeometry>
        </mxCell>
        <mxCell id="hjnCzS9Ko7K_M3NJ6Ssh-67" value="" style="endArrow=open;html=1;endSize=12;startArrow=diamondThin;startSize=14;startFill=0;edgeStyle=orthogonalEdgeStyle;align=left;verticalAlign=bottom;entryX=0.5;entryY=0;entryDx=0;entryDy=0;exitX=0.5;exitY=1;exitDx=0;exitDy=0;" edge="1" parent="1" source="hjnCzS9Ko7K_M3NJ6Ssh-51" target="hjnCzS9Ko7K_M3NJ6Ssh-59">
          <mxGeometry x="-1" y="3" relative="1" as="geometry">
            <mxPoint x="430" y="404.79999999999995" as="sourcePoint" />
            <mxPoint x="595" y="405" as="targetPoint" />
          </mxGeometry>
        </mxCell>
        <mxCell id="hjnCzS9Ko7K_M3NJ6Ssh-68" value="" style="endArrow=open;html=1;endSize=12;startArrow=diamondThin;startSize=14;startFill=0;edgeStyle=orthogonalEdgeStyle;align=left;verticalAlign=bottom;entryX=0.5;entryY=0;entryDx=0;entryDy=0;exitX=0.5;exitY=1;exitDx=0;exitDy=0;" edge="1" parent="1" source="hjnCzS9Ko7K_M3NJ6Ssh-51" target="hjnCzS9Ko7K_M3NJ6Ssh-61">
          <mxGeometry x="-1" y="3" relative="1" as="geometry">
            <mxPoint x="675" y="430" as="sourcePoint" />
            <mxPoint x="675" y="540" as="targetPoint" />
          </mxGeometry>
        </mxCell>
        <mxCell id="hjnCzS9Ko7K_M3NJ6Ssh-69" value="" style="endArrow=open;html=1;endSize=12;startArrow=diamondThin;startSize=14;startFill=0;edgeStyle=orthogonalEdgeStyle;align=left;verticalAlign=bottom;entryX=0.506;entryY=-0.057;entryDx=0;entryDy=0;exitX=0.5;exitY=1;exitDx=0;exitDy=0;entryPerimeter=0;" edge="1" parent="1" source="hjnCzS9Ko7K_M3NJ6Ssh-51" target="hjnCzS9Ko7K_M3NJ6Ssh-41">
          <mxGeometry x="-1" y="3" relative="1" as="geometry">
            <mxPoint x="675" y="430" as="sourcePoint" />
            <mxPoint x="870" y="540" as="targetPoint" />
          </mxGeometry>
        </mxCell>
        <mxCell id="hjnCzS9Ko7K_M3NJ6Ssh-71" value="" style="verticalLabelPosition=bottom;html=1;verticalAlign=top;strokeWidth=1;align=center;outlineConnect=0;dashed=0;outlineConnect=0;shape=mxgraph.aws3d.file;aspect=fixed;strokeColor=#292929;" vertex="1" parent="1">
          <mxGeometry x="444.6" y="650" width="30.8" height="70.6" as="geometry" />
        </mxCell>
        <mxCell id="hjnCzS9Ko7K_M3NJ6Ssh-73" value="" style="shape=datastore;whiteSpace=wrap;html=1;" vertex="1" parent="1">
          <mxGeometry x="830" y="650" width="60" height="60" as="geometry" />
        </mxCell>
        <mxCell id="hjnCzS9Ko7K_M3NJ6Ssh-74" value="insert" style="endArrow=open;endSize=12;dashed=1;html=1;exitX=0.5;exitY=1;exitDx=0;exitDy=0;entryX=0.5;entryY=0;entryDx=0;entryDy=0;" edge="1" parent="1" source="hjnCzS9Ko7K_M3NJ6Ssh-61" target="hjnCzS9Ko7K_M3NJ6Ssh-73">
          <mxGeometry width="160" relative="1" as="geometry">
            <mxPoint x="470" y="590" as="sourcePoint" />
            <mxPoint x="470" y="660" as="targetPoint" />
            <Array as="points" />
          </mxGeometry>
        </mxCell>
      </root>
    </mxGraphModel>
  </diagram>
</mxfile>
